Coordinates
version=1
nRows=7
nColumns=40
inDegrees=yes

Units are S.I. units (second, meters, Newtons, ...)
Angles are in degrees.

endheader
time	pelvis_tilt	pelvis_list	pelvis_rotation	pelvis_tx	pelvis_ty	pelvis_tz	hip_flexion_r	hip_adduction_r	hip_rotation_r	knee_angle_r	knee_angle_r_beta	ankle_angle_r	subtalar_angle_r	mtp_angle_r	hip_flexion_l	hip_adduction_l	hip_rotation_l	knee_angle_l	knee_angle_l_beta	ankle_angle_l	subtalar_angle_l	mtp_angle_l	lumbar_extension	lumbar_bending	lumbar_rotation	arm_flex_r	arm_add_r	arm_rot_r	elbow_flex_r	pro_sup_r	wrist_flex_r	wrist_dev_r	arm_flex_l	arm_add_l	arm_rot_l	elbow_flex_l	pro_sup_l	wrist_flex_l	wrist_dev_l
      1.94250000	     -4.61328643	     -3.58287396	      4.98971233	      0.76003363	      0.92858210	      0.49798633	     13.67801884	      1.77070602	    -13.95504966	     18.62623846	     18.62623846	     11.48121480	     -4.27586024	     -4.98671745	     31.08692347	     -7.48665050	      2.35571085	     44.92286882	     44.92286882	     11.03304827	    -17.16445887	      8.83495093	    -10.82063111	      5.87914509	      1.68479442	     24.81767028	    -16.14978733	      5.22093956	     55.86740609	     45.02036741	      0.00000000	      0.00000000	      0.84726379	     -7.91642554	    -11.74760060	     46.61189422	     46.94685206	      0.00000000	      0.00000000
      1.95585714	     -4.70678021	     -3.44856333	      5.43139200	      0.75824080	      0.92883657	      0.49796462	     13.23504187	      1.67584870	    -14.12102850	     18.30750368	     18.30750368	     11.66900754	     -4.46152641	     -4.94551711	     31.35176816	     -6.98369525	      2.53068422	     41.13614393	     41.13614393	     11.29410362	    -16.49307262	      9.04008226	    -10.85989552	      5.62270256	      1.49144644	     26.73446290	    -15.94308862	      5.06636512	     57.58063089	     44.98035670	      0.00000000	      0.00000000	      0.03832713	     -8.01404076	    -11.74588040	     45.60559106	     46.92189106	      0.00000000	      0.00000000
      1.96921429	     -4.84128138	     -3.43953604	      5.84652159	      0.75653922	      0.92882709	      0.49782637	     12.86566238	      1.67032984	    -14.42848347	     18.04406172	     18.04406172	     11.88571005	     -4.37880052	     -4.98174667	     31.56141967	     -6.56477261	      2.81215134	     37.23774449	     37.23774449	     10.96207219	    -15.81403259	      7.83980155	    -10.86119287	      5.56853892	      1.91394069	     27.61919240	    -16.74392706	      5.39821345	     61.88969242	     44.85402126	      0.00000000	      0.00000000	      0.36939022	     -7.75195063	    -12.27729295	     42.49741544	     46.91289825	      0.00000000	      0.00000000
      1.98257143	     -5.03247683	     -3.36122113	      6.27228870	      0.75489354	      0.92867125	      0.49759216	     12.57356677	      1.60057580	    -14.63874636	     17.82052696	     17.82052696	     12.08535313	     -4.58589380	     -4.96376109	     31.80093348	     -6.07073407	      3.03715327	     33.52289737	     33.52289737	     11.26365100	    -14.42294878	      8.13660984	    -10.73993584	      5.34964182	      1.82365280	     29.44390656	    -16.62422912	      5.16978524	     63.24632267	     44.82844947	      0.00000000	      0.00000000	     -0.39477135	     -7.72860434	    -12.24276053	     41.78566050	     46.88975398	      0.00000000	      0.00000000
      1.99592857	     -5.07070456	     -3.41394616	      6.67906703	      0.75351261	      0.92854851	      0.49732228	     12.11745060	      1.66379707	    -14.97367092	     17.62955722	     17.62955722	     12.38059194	     -4.49123143	     -4.87035796	     31.83802851	     -5.71668324	      3.34889946	     29.94365978	     29.94365978	     11.25646480	    -13.00777819	      7.78238942	    -10.81779328	      5.37218345	      1.93907966	     30.45506944	    -16.96550445	      5.22438173	     67.22353710	     44.73313775	      0.00000000	      0.00000000	     -0.36484633	     -7.69277749	    -12.57654642	     39.17203550	     46.86875523	      0.00000000	      0.00000000
      2.00928571	     -5.19681139	     -3.47307233	      7.01025956	      0.75222678	      0.92819971	      0.49707651	     11.77262923	      1.74718907	    -15.17201131	     17.46101665	     17.46101665	     12.64760077	     -4.52370614	     -4.82230643	     32.01049286	     -5.42680886	      3.48497538	     26.75777355	     26.75777355	     11.40935632	    -11.27058631	      8.05934454	    -10.75679413	      5.34894636	      1.80081285	     32.00980513	    -16.71095763	      5.06406545	     69.42248557	     44.69082672	      0.00000000	      0.00000000	     -0.97175016	     -7.73595245	    -12.63811419	     37.98286994	     46.84175479	      0.00000000	      0.00000000
      2.02264286	     -5.25585344	     -3.46624707	      7.30372605	      0.75116667	      0.92786610	      0.49671055	     11.38208331	      1.75734555	    -15.32163787	     17.38440637	     17.38440637	     12.94167758	     -4.62238653	     -4.82915659	     32.06972504	     -5.08698863	      3.53225498	     23.89163045	     23.89163045	     11.53002885	     -9.61839050	      8.43032391	    -10.70951670	      5.24585430	      1.73088181	     33.56813576	    -16.41941840	      4.98296521	     71.16433908	     44.64976415	      0.00000000	      0.00000000	     -1.65535497	     -7.81735468	    -12.67015090	     37.12415065	     46.82576949	      0.00000000	      0.00000000
